<?xml version="1.0" encoding="UTF-8"?>
<svg width="75px" height="32px" viewBox="0 0 75 32" version="1.1" xmlns="http://www.w3.org/2000/svg" xmlns:xlink="http://www.w3.org/1999/xlink">
    <!-- Generator: Sketch 42 (36781) - http://www.bohemiancoding.com/sketch -->
    <title>Page 1</title>
    <desc>Created with Sketch.</desc>
    <defs>
        <polygon id="path-1" points="15.3948341 18.833219 15.3948341 0.158874688 0.140872995 0.158874688 0.140872995 18.833219 15.3948341 18.833219"></polygon>
        <polygon id="path-3" points="5.31004775 0.0332528416 0.164478407 0.0332528416 0.164478407 5.30150875 5.31004775 5.30150875 5.31004775 0.0332528416"></polygon>
        <polygon id="path-5" points="-2.27373675e-13 30.9616798 73.8952036 30.9616798 73.8952036 0.205264454 -2.27373675e-13 0.205264454"></polygon>
    </defs>
    <g id="Page-1" stroke="none" stroke-width="1" fill="none" fill-rule="evenodd">
        <g id="FINAL-MVP" transform="translate(-223.000000, -2452.000000)">
            <g id="Page-1" transform="translate(223.945229, 2452.667969)">
                <g id="Group-3" transform="translate(58.500370, 6.535210)">
                    <mask id="mask-2" fill="white">
                        <use xlink:href="#path-1"></use>
                    </mask>
                    <g id="Clip-2"></g>
                    <path d="M5.24621051,7.61469547 C5.24621051,5.30485456 6.67054056,4.33785372 7.95180128,4.33785372 C9.21048292,4.33785372 10.5449071,5.307523 10.5449071,7.61469547 L5.24621051,7.61469547 Z M15.3948957,9.55259718 C15.3948957,4.30295876 12.8535165,0.158874688 7.98443833,0.158874688 C3.10797068,0.158874688 0.140872995,4.30460087 0.140872995,9.52509174 C0.140872995,15.7062203 3.63960562,18.833219 8.63163715,18.833219 C11.0814684,18.833219 12.9206379,18.275926 14.3129467,17.5045421 L14.3129467,13.3748266 C12.9159168,14.0801153 11.3134173,14.5089127 9.27801492,14.5089127 C7.28038125,14.5089127 5.52044382,13.8009556 5.29116342,11.3991562 L15.3255163,11.3991562 C15.3487112,11.1220492 15.3948957,10.0483108 15.3948957,9.55259718 L15.3948957,9.55259718 Z" id="Fill-1" fill="#2B2E30" mask="url(#mask-2)"></path>
                </g>
                <path d="M49.4914152,20.8396585 C48.2891813,20.8396585 47.5711663,20.4061399 47.0738105,19.8671155 L47.0432261,12.2501621 C47.5777347,11.6649532 48.3148394,11.2347189 49.4914152,11.2347189 C51.3669166,11.2347189 52.6576195,13.3356006 52.6576195,16.0171754 C52.6576195,18.7765454 51.3872377,20.8396585 49.4914152,20.8396585 M50.7162282,6.69406386 C48.7070998,6.69426913 47.4100337,7.6397172 46.7012555,8.30169507 L46.434617,7.03500812 L41.9208516,7.03500812 L41.922699,30.9616593 L47.048563,29.8721155 L47.0592367,24.0717526 C47.7953151,24.610777 48.8916325,25.3686134 50.6852333,25.3686134 C54.3522828,25.3686134 57.706304,22.4173211 57.706304,15.9042799 C57.706304,9.93683171 54.3161562,6.69406386 50.7162282,6.69406386" id="Fill-4" fill="#2B2E30"></path>
                <g id="Group-8" transform="translate(34.689693, 0.172012)">
                    <mask id="mask-4" fill="white">
                        <use xlink:href="#path-3"></use>
                    </mask>
                    <g id="Clip-7"></g>
                    <polygon id="Fill-6" fill="#2B2E30" mask="url(#mask-4)" points="0.164478407 5.30150875 5.31004775 4.20785974 5.31004775 0.0331912623 0.164478407 1.12684028"></polygon>
                </g>
                <mask id="mask-6" fill="white">
                    <use xlink:href="#path-5"></use>
                </mask>
                <g id="Clip-10"></g>
                <polygon id="Fill-9" fill="#2B2E30" mask="url(#mask-6)" points="34.8541096 25.0022369 39.999679 25.0022369 39.999679 7.03502865 34.8541096 7.03502865"></polygon>
                <path d="M29.3414248,8.55031138 L29.0201859,7.03484391 L24.5887316,7.03484391 L24.5887316,25.0022574 L29.7113114,25.0022574 L29.7113114,12.8216594 C30.9223716,11.2308599 32.9672161,11.5377302 33.6197518,11.7483316 L33.6197518,7.03689655 C32.936837,6.79140027 30.540785,6.34453955 29.3414248,8.55031138" id="Fill-11" fill="#2B2E30" mask="url(#mask-6)"></path>
                <path d="M19.0624173,2.58434106 L14.0580699,3.64802146 L14.0363118,20.093399 C14.0363118,23.1280287 16.3182368,25.3684902 19.360256,25.3684902 C21.036035,25.3684902 22.2737796,25.0640831 22.9575155,24.6892702 L22.9575155,20.5166543 C22.3008745,20.7791876 19.0663173,21.7197093 19.0663173,18.6984218 L19.0663173,11.4061968 L22.9593629,11.4061968 L22.9593629,7.03488496 L19.0663173,7.03488496 L19.0624173,2.58434106 Z" id="Fill-12" fill="#2B2E30" mask="url(#mask-6)"></path>
                <path d="M5.18430275,12.2509626 C5.18430275,11.4508418 5.8510017,11.1402767 6.92515059,11.1402767 C8.48413412,11.1402767 10.4639098,11.6177218 12.0230986,12.4593061 L12.0230986,7.63210189 C10.3253563,6.95472919 8.62761397,6.6942486 6.92987167,6.6942486 C2.77203488,6.6942486 -6.15793363e-05,8.86574126 -6.15793363e-05,12.4944063 C-6.15793363e-05,18.1689421 7.79239291,17.2473047 7.79239291,19.6944676 C7.79239291,20.6415578 6.96928244,20.9478123 5.82575417,20.9478123 C4.12801186,20.9478123 1.93660855,20.2466289 0.21649242,19.3110336 L0.21649242,24.2049487 C2.12216762,25.0247749 4.05411666,25.3685929 5.82103308,25.3685929 C10.0827337,25.3685929 13.0194522,23.2625796 13.0194522,19.572951 C13.0194522,13.4612019 5.18430275,14.5577246 5.18430275,12.2509626" id="Fill-13" fill="#2B2E30" mask="url(#mask-6)"></path>
            </g>
        </g>
    </g>
</svg>