<?xml version="1.0" encoding="utf-8"?>
<!-- Generator: Adobe Illustrator 18.0.0, SVG Export Plug-In . SVG Version: 6.00 Build 0)  -->
<!DOCTYPE svg PUBLIC "-//W3C//DTD SVG 1.1//EN" "http://www.w3.org/Graphics/SVG/1.1/DTD/svg11.dtd">
<svg version="1.1" id="Layer_1" xmlns:sketch="http://www.bohemiancoding.com/sketch/ns"
	 xmlns="http://www.w3.org/2000/svg" xmlns:xlink="http://www.w3.org/1999/xlink" x="0px" y="0px" width="90px" height="40px"
	 viewBox="0 0 90 40" enable-background="new 0 0 90 40" xml:space="preserve">
<title>UniverseLogo</title>
<desc>Created with Sketch.</desc>
<g id="Page-1" sketch:type="MSPage">
	<g id="PaymentPreference" transform="translate(-253.000000, -367.000000)" sketch:type="MSArtboardGroup">
		<g id="Group" transform="translate(96.000000, 214.000000)" sketch:type="MSLayerGroup">
			<g id="UniverseLogo" transform="translate(40.000000, 86.000000)">
				<g transform="translate(117.000000, 67.000000)">
					<g id="Fill-1">
						<path sketch:type="MSShapeGroup" fill="#4E78F1" d="M65.5,9.3c0.1-0.2,0-0.4-0.3-0.5c-0.2-0.1-0.7-0.3-1.4-0.4
							C61.5,8,59.2,8.5,58,10.5c-0.3,0.6-0.6,1.5-0.6,2.9c0,2.9,0.1,6.8,0.1,7s0.1,0.3,0.3,0.4c0.2,0.1,0.6,0.1,1.3,0.1
							s1.3-0.1,1.5-0.1c0.3-0.1,0.2-0.3,0.2-0.3v-6.9c0-1.3,1.1-2,2.4-1.8h0.1c0.9,0.2,1,0.1,1.3-0.3C64.8,11.1,65.3,9.9,65.5,9.3"
							/>
					</g>
					<g id="Fill-2">
						<path sketch:type="MSShapeGroup" fill="#4E78F1" d="M7.9,17.4c1.2,0,2.2-0.7,2.2-2.1c0-0.3,0.1-4.2,0-6.5c0,0,0-0.3,0.3-0.4
							c0.2-0.1,0.8-0.1,1.5-0.1c0.6,0,1.1,0.1,1.3,0.1c0.2,0.1,0.3,0.2,0.3,0.4c0,0.1,0.1,3.9,0.1,6.7c0,1.4-0.3,2.1-0.6,2.7
							c-1,1.7-2.7,2.6-4.9,2.6H7.9c-2.2,0-3.9-0.9-4.9-2.6c-0.3-0.6-0.5-1.3-0.5-2.7c0-2.8,0.1-6.6,0.1-6.7c0-0.2,0.1-0.3,0.3-0.4
							c0.3-0.1,0.7-0.1,1.3-0.1c0.7,0,1.1,0.1,1.3,0.1c0.3,0.1,0.3,0.3,0.3,0.3c0,2.3,0,6.2,0,6.6C5.7,16.7,6.7,17.4,7.9,17.4"/>
					</g>
					<g id="Fill-3">
						<path sketch:type="MSShapeGroup" fill="#4E78F1" d="M37.5,20.6c-0.2-0.3-1.1-2.2-2.2-5.2C34.1,12.2,33,9.2,33,8.8
							c0-0.4,0.9-0.5,1.5-0.5c1.3,0,1.5,0.1,1.7,0.7c0.1,0.3,2,5.6,2.4,6.6c0,0.1,0.2,0.1,0.3,0c0.5-1.4,2.4-6.4,2.5-6.6
							c0.3-0.5,0.4-0.7,1.7-0.7c0.6,0,1.5,0,1.5,0.5c0,0.4-1,3.3-2.2,6.6c-1.1,3.1-2,5-2.2,5.3S39.5,21,38.9,21
							C38.4,20.9,37.8,20.9,37.5,20.6"/>
					</g>
					<g id="Fill-4">
						<path sketch:type="MSShapeGroup" fill="#4E78F1" d="M20.7,8.3c2.2,0,3.9,0.9,4.8,2.7c0.3,0.6,0.6,1.3,0.6,2.7
							c0,2.9-0.1,6.7-0.1,6.7c0,0.2-0.1,0.3-0.3,0.4c-0.2,0.1-0.6,0.1-1.3,0.1c-0.7,0-1.1,0-1.4-0.1c-0.2-0.1-0.2-0.3-0.2-0.3v-6.8
							c0-1.4-0.9-2.3-2.2-2.3c-1.2,0-2.2,0.9-2.2,2.3c0,0.3-0.1,4.3,0,6.7c0,0,0,0.3-0.3,0.4c-0.2,0.1-0.6,0.1-1.3,0.1
							c-0.6,0-1.2-0.1-1.3-0.1s-0.3-0.2-0.3-0.3c0-0.1-0.1-3.8-0.1-6.7c0-1.4,0.3-2.2,0.6-2.8C16.8,9.2,18.5,8.3,20.7,8.3L20.7,8.3"
							/>
					</g>
					<g id="Fill-5">
						<path sketch:type="MSShapeGroup" fill="#4E78F1" d="M28.6,20.8c-0.3-0.1-0.3-0.3-0.3-0.5c0-0.1-0.1-0.7-0.1-5.8
							c0-4.9,0.1-5.6,0.1-5.7c0-0.2,0.1-0.3,0.3-0.4c0.2-0.1,0.6-0.1,1.3-0.1c0.6,0,1.2,0,1.4,0.1c0.2,0,0.3,0.2,0.3,0.4
							c0,0.1,0.1,0.8,0.1,5.7c0,5.1-0.1,5.9-0.1,5.9c0,0.2-0.1,0.3-0.3,0.4c-0.2,0.1-0.6,0.1-1.3,0.1S28.8,20.8,28.6,20.8"/>
					</g>
					<g id="Fill-6">
						<path sketch:type="MSShapeGroup" fill="#4E78F1" d="M71.3,13c-0.5,0-1.5-0.1-1.5-1.1c0-0.9,0.7-1,1.4-1c0.4,0,1.3,0.1,2.6,0.5
							c0.8,0.3,1.3,0.5,1.5,0.6s0.6-0.4,0.9-1.1c0.3-0.7,0.4-1.3,0.2-1.3c-0.3-0.2-2.8-1.3-5.4-1.3c-2.3,0-4.9,1.1-4.9,4
							c0,2.8,2.5,3.5,4.8,3.7h0.2c0.9,0.1,1.9,0.1,1.9,1.1c0,0.7-0.4,1.1-1.5,1.1c-1.3,0-2.8-0.6-3.8-1.1c-0.5-0.3-0.8-0.5-1-0.5
							c-0.1,0-0.6,0.4-1,0.9c-0.3,0.5-0.5,1.1-0.4,1.3c0.3,0.4,1.3,0.9,2.4,1.3c0.8,0.3,2.2,0.7,3.6,0.7c3.2,0,5.3-1.5,5.3-4.1
							C76.8,13.6,73.7,13,71.3,13"/>
					</g>
					<g id="Fill-7">
						<path sketch:type="MSShapeGroup" fill="#4E78F1" d="M89,14.3c0-4.4-2.6-6-5.6-6c-3.4,0-5.7,2.4-5.7,6c0,4.5,3.6,6.6,5.9,6.6
							c2.2,0,3.4-0.5,4.5-1.1c0.4-0.2,0.4-0.3,0.4-0.5c-0.1-0.2-0.2-0.5-0.4-1c-0.3-0.5-0.5-0.9-0.6-1.1c-0.1-0.1-0.2-0.1-0.5,0
							c-1,0.5-2.4,0.7-3.2,0.7c-2,0-2.7-1.7-2.7-2.1c0-0.1,0-0.1,0.1-0.1c0.6,0,2.1,0.1,3.3,0.1c2,0,3.4-0.1,4-0.1
							c0.3,0,0.5-0.1,0.5-0.4C89,14.9,89,14.8,89,14.3L89,14.3z M86,13.2h-4.8c-0.1,0-0.1-0.1-0.1-0.1c0-1.3,1.2-2.2,2.6-2.2
							s2.5,1,2.5,2.2C86.1,13.2,86,13.2,86,13.2L86,13.2z"/>
					</g>
					<g id="Fill-8">
						<path sketch:type="MSShapeGroup" fill="#4E78F1" d="M56,14.4c0-4.4-2.6-6-5.6-6c-3.4,0-5.7,2.4-5.7,6c0,4.5,3.6,6.6,5.9,6.6
							c2.2,0,3.4-0.5,4.5-1.1c0.4-0.2,0.4-0.3,0.4-0.5c-0.1-0.2-0.2-0.5-0.4-1c-0.3-0.5-0.5-0.9-0.6-1.1c-0.1-0.1-0.2-0.1-0.5,0
							c-1,0.5-2.4,0.7-3.2,0.7c-2,0-2.7-1.7-2.7-2.1c0-0.1,0-0.1,0.1-0.1c0.6,0,2.1,0.1,3.3,0.1c2,0,3.4-0.1,4-0.1
							c0.3,0,0.5-0.1,0.5-0.4C56,15,56,14.9,56,14.4L56,14.4z M52.9,13.3h-4.8c-0.1,0-0.1-0.1-0.1-0.1c0-1.3,1.2-2.2,2.6-2.2
							c1.4,0,2.5,1,2.5,2.3C53,13.3,52.9,13.3,52.9,13.3L52.9,13.3z"/>
					</g>
					<g enable-background="new    ">
						<path fill="#78848F" d="M3,32v-6.3h2.5c1.3,0,2,0.9,2,1.9s-0.7,1.9-2,1.9H3.8V32H3z M6.8,27.6c0-0.7-0.5-1.2-1.3-1.2H3.8v2.4
							h1.7C6.2,28.8,6.8,28.3,6.8,27.6z"/>
						<path fill="#78848F" d="M11.3,32v-0.5c-0.4,0.4-0.9,0.6-1.5,0.6c-0.8,0-1.6-0.5-1.6-1.5s0.8-1.5,1.6-1.5
							c0.6,0,1.1,0.2,1.5,0.6v-0.8c0-0.6-0.5-1-1.2-1c-0.6,0-1,0.2-1.4,0.6L8.4,28c0.5-0.5,1.1-0.8,1.8-0.8c1,0,1.8,0.4,1.8,1.5V32
							H11.3z M11.3,31v-0.9c-0.3-0.4-0.8-0.6-1.3-0.6c-0.7,0-1.1,0.4-1.1,1s0.5,1,1.1,1C10.5,31.6,11,31.4,11.3,31z"/>
						<path fill="#78848F" d="M13.3,33.2c0.1,0,0.3,0.1,0.4,0.1c0.3,0,0.5-0.1,0.7-0.5l0.3-0.7l-1.9-4.6h0.8l1.5,3.8l1.5-3.8h0.7
							L15,33c-0.3,0.7-0.7,0.9-1.4,0.9c-0.2,0-0.4,0-0.5-0.1L13.3,33.2z"/>
						<path fill="#78848F" d="M23.6,32v-3.1c0-0.6-0.3-1-0.8-1s-1,0.3-1.2,0.7V32h-0.7v-3.1c0-0.6-0.2-1-0.8-1c-0.5,0-1,0.3-1.2,0.7
							V32h-0.7v-4.6h0.7v0.7c0.2-0.3,0.8-0.8,1.5-0.8s1.1,0.4,1.2,0.9c0.3-0.4,0.9-0.9,1.5-0.9c0.8,0,1.3,0.5,1.3,1.4V32H23.6z"/>
						<path fill="#78848F" d="M25.5,29.7c0-1.3,1-2.4,2.3-2.4c1.4,0,2.2,1.1,2.2,2.5V30h-3.7c0.1,0.9,0.7,1.6,1.7,1.6
							c0.5,0,1.1-0.2,1.4-0.6l0.3,0.5c-0.5,0.5-1.1,0.7-1.8,0.7C26.4,32.1,25.5,31.1,25.5,29.7z M27.7,27.9c-1,0-1.5,0.8-1.5,1.5h3
							C29.2,28.7,28.8,27.9,27.7,27.9z"/>
						<path fill="#78848F" d="M34.2,32v-3c0-0.8-0.4-1.1-1-1.1c-0.6,0-1.1,0.3-1.4,0.7V32h-0.7v-4.6h0.7v0.7c0.3-0.4,1-0.8,1.6-0.8
							c1,0,1.5,0.5,1.5,1.5V32H34.2z"/>
						<path fill="#78848F" d="M36.5,31v-3h-0.8v-0.6h0.8v-1.3h0.7v1.3h0.9V28h-0.9v2.9c0,0.3,0.2,0.6,0.5,0.6c0.2,0,0.4-0.1,0.5-0.2
							l0.2,0.5c-0.2,0.2-0.4,0.3-0.9,0.3C36.8,32.1,36.5,31.7,36.5,31z"/>
						<path fill="#78848F" d="M38.7,31.4l0.4-0.5c0.3,0.4,0.9,0.7,1.5,0.7c0.7,0,1.1-0.3,1.1-0.8c0-1.1-2.8-0.4-2.8-2.1
							c0-0.7,0.6-1.3,1.7-1.3c0.8,0,1.3,0.3,1.7,0.7L42,28.6c-0.3-0.3-0.8-0.6-1.4-0.6c-0.6,0-1,0.3-1,0.7c0,1,2.8,0.3,2.8,2.1
							c0,0.8-0.6,1.4-1.8,1.4C39.8,32.1,39.2,31.9,38.7,31.4z"/>
					</g>
				</g>
			</g>
		</g>
	</g>
</g>
</svg>
